<svg xmlns="http://www.w3.org/2000/svg" xmlns:xlink="http://www.w3.org/1999/xlink" viewBox="0 0 71.75 66.51"><defs><style>.cls-1{fill:none;}.cls-2{clip-path:url(#clip-path);}.cls-3{fill:#faab3d;}.cls-4{fill:#333c5e;}</style><clipPath id="clip-path" transform="translate(0 0)"><rect class="cls-1" width="71.75" height="66.51"/></clipPath></defs><g id="Layer_2" data-name="Layer 2"><g id="Layer_1-2" data-name="Layer 1"><g class="cls-2"><path class="cls-3" d="M57.18,14.55A14.28,14.28,0,0,0,42.64,0H14.5A14.27,14.27,0,0,0,0,14.52Q0,28.61,0,42.67a14.26,14.26,0,0,0,14.5,14.51H33.3a21.39,21.39,0,0,1-1.47-4.78H14.67a9.46,9.46,0,0,1-9.88-9.86q0-13.93,0-27.86a9.48,9.48,0,0,1,9.92-9.9H42.56a9.44,9.44,0,0,1,9.84,9.82c0,3.88,0,7.75,0,11.63.38,0,.77,0,1.16,0a22.77,22.77,0,0,1,3.62.29c0-4,0-8,0-11.95" transform="translate(0 0)"/><path class="cls-3" d="M28.59,14.3c3.93,0,7.87,0,11.8,0a2.39,2.39,0,1,1-.09,4.77H17.12a2.54,2.54,0,0,1-2.62-1.46,2.37,2.37,0,0,1,2.28-3.32c3.94,0,7.87,0,11.81,0" transform="translate(0 0)"/><path class="cls-3" d="M34,38.11a21.85,21.85,0,0,0-1.82,4.78H28.56c-3.91,0-7.82,0-11.73,0a2.37,2.37,0,0,1-2.29-3.41A2.46,2.46,0,0,1,17,38.11H34Z" transform="translate(0 0)"/><path class="cls-3" d="M42.86,29a21.91,21.91,0,0,0-3,2c-3.79,0-7.59,0-11.38,0h0c-3.86,0-7.72,0-11.58,0a2.38,2.38,0,0,1-2.43-3.32,2.27,2.27,0,0,1,2.18-1.43c1.22,0,2.43,0,3.65,0H40.22a2.37,2.37,0,0,1,2.54,1.65,2.48,2.48,0,0,1,.1,1.11" transform="translate(0 0)"/><path class="cls-4" d="M53.57,30.15A18.18,18.18,0,1,0,71.75,48.33,18.2,18.2,0,0,0,53.57,30.15m8,19.69H55.09v6.44a1.52,1.52,0,1,1-3,0V49.84H45.62a1.51,1.51,0,1,1,0-3h6.44V40.38a1.52,1.52,0,1,1,3,0v6.44h6.44a1.51,1.51,0,1,1,0,3" transform="translate(0 0)"/></g></g></g></svg>