<svg 
 xmlns="http://www.w3.org/2000/svg"
 xmlns:xlink="http://www.w3.org/1999/xlink"
 width="35px" height="35px">
<path fill-rule="evenodd"  fill="rgb(255, 255, 255)"
 d="M34.700,16.174 L30.598,20.275 C30.303,20.569 29.863,20.657 29.481,20.497 C29.097,20.339 28.848,19.964 28.848,19.550 L28.848,17.500 L23.652,17.500 C22.662,17.500 21.765,17.867 21.056,18.453 C20.617,17.108 19.922,15.891 19.006,14.853 C20.329,13.940 21.927,13.398 23.652,13.398 L28.848,13.398 L28.848,11.348 C28.848,10.933 29.097,10.559 29.481,10.400 C29.865,10.240 30.304,10.331 30.598,10.623 L34.700,14.724 C35.100,15.124 35.100,15.773 34.700,16.174 ZM21.601,6.152 L19.551,6.152 L19.551,12.216 C18.812,12.541 18.136,12.969 17.500,13.451 C16.864,12.969 16.188,12.541 15.449,12.216 L15.449,6.152 L13.399,6.152 C12.984,6.152 12.610,5.902 12.451,5.519 C12.292,5.136 12.380,4.695 12.674,4.402 L16.775,0.300 C16.975,0.100 17.238,-0.000 17.500,-0.000 C17.762,-0.000 18.025,0.100 18.225,0.300 L22.326,4.402 C22.620,4.695 22.708,5.136 22.549,5.519 C22.390,5.902 22.016,6.152 21.601,6.152 ZM19.551,21.601 L19.551,33.974 C19.551,34.541 19.092,35.000 18.525,35.000 L16.475,35.000 C15.908,35.000 15.449,34.541 15.449,33.974 L15.449,21.601 C15.449,19.339 13.610,17.500 11.347,17.500 L6.152,17.500 L6.152,19.550 C6.152,19.964 5.903,20.339 5.519,20.497 C5.137,20.657 4.697,20.569 4.402,20.275 L0.300,16.174 C-0.100,15.773 -0.100,15.124 0.300,14.724 L4.402,10.623 C4.696,10.331 5.135,10.240 5.519,10.400 C5.903,10.559 6.152,10.933 6.152,11.348 L6.152,13.398 L11.347,13.398 C15.871,13.398 19.551,17.078 19.551,21.601 Z"/>
</svg>