<svg 
 xmlns="http://www.w3.org/2000/svg"
 xmlns:xlink="http://www.w3.org/1999/xlink"
 width="26px" height="30px">
<path fill-rule="evenodd"  fill="rgb(255, 255, 255)"
 d="M25.538,13.084 C25.537,13.169 25.448,13.291 25.368,13.332 C24.357,13.846 23.341,14.349 22.325,14.852 C22.285,14.872 22.234,14.869 22.134,14.884 C22.134,14.372 22.134,13.885 22.134,13.398 C22.134,12.929 22.126,12.461 22.140,11.993 C22.144,11.888 22.196,11.729 22.274,11.689 C23.334,11.143 24.402,10.614 25.545,10.042 C25.545,11.115 25.550,12.100 25.538,13.084 ZM22.172,9.824 C22.172,8.275 22.172,6.784 22.172,5.294 C24.017,4.944 25.575,6.132 25.540,7.862 C25.538,7.979 25.485,8.158 25.400,8.201 C24.349,8.744 23.287,9.267 22.172,9.824 ZM22.220,16.880 C22.417,16.557 22.963,16.442 23.359,16.243 C24.042,15.900 24.728,15.562 25.413,15.223 C25.433,15.213 25.460,15.218 25.545,15.211 C25.545,16.217 25.549,17.203 25.539,18.188 C25.539,18.268 25.474,18.386 25.405,18.421 C24.359,18.947 23.308,19.463 22.257,19.979 C22.239,19.988 22.210,19.974 22.134,19.963 C22.134,19.385 22.129,18.799 22.136,18.213 C22.142,17.760 22.015,17.218 22.220,16.880 ZM17.786,29.996 C13.694,30.000 9.603,29.998 5.511,29.997 C5.390,29.997 5.270,29.986 5.129,29.980 C5.129,20.301 5.129,10.648 5.129,0.942 C5.271,0.942 5.402,0.942 5.533,0.942 C9.600,0.942 13.667,0.941 17.734,0.943 C19.314,0.944 20.429,2.036 20.430,3.616 C20.436,11.533 20.436,19.450 20.431,27.367 C20.430,28.918 19.337,29.995 17.786,29.996 ZM16.891,16.127 C16.376,14.298 15.128,13.280 13.256,12.921 C14.910,12.163 15.531,11.215 15.276,9.852 C15.071,8.753 14.061,7.881 12.930,7.825 C11.697,7.765 10.633,8.510 10.313,9.691 C10.121,10.401 10.215,11.087 10.614,11.718 C11.006,12.340 11.591,12.699 12.287,12.914 C12.201,12.952 12.128,12.960 12.056,12.973 C10.034,13.345 8.537,15.077 8.522,17.059 C8.518,17.674 8.830,18.004 9.445,18.016 C9.914,18.024 10.384,18.017 10.854,18.017 C12.596,18.017 14.338,18.020 16.081,18.016 C16.715,18.014 17.047,17.672 17.016,17.041 C17.001,16.735 16.974,16.421 16.891,16.127 ZM16.969,20.275 C16.853,19.923 16.521,19.725 16.051,19.724 C13.864,19.721 11.678,19.720 9.491,19.725 C8.903,19.726 8.528,20.065 8.524,20.569 C8.520,21.090 8.894,21.417 9.512,21.420 C10.600,21.423 11.687,21.420 12.774,21.420 C13.861,21.420 14.949,21.434 16.036,21.410 C16.277,21.405 16.552,21.320 16.747,21.181 C17.050,20.966 17.082,20.618 16.969,20.275 ZM0.005,29.126 C-0.007,28.496 0.001,27.866 0.001,27.236 C0.001,18.837 0.000,10.437 0.001,2.038 C0.001,1.223 0.282,0.943 1.087,0.943 C1.840,0.942 2.594,0.942 3.381,0.942 C3.381,10.626 3.381,20.288 3.381,29.995 C2.497,29.995 1.644,30.009 0.792,29.989 C0.328,29.978 0.014,29.618 0.005,29.126 ZM22.297,21.890 C23.346,21.347 24.406,20.826 25.537,20.262 C25.537,21.306 25.556,22.279 25.520,23.250 C25.513,23.448 25.347,23.724 25.174,23.818 C24.202,24.347 23.206,24.831 22.175,25.353 C22.157,25.209 22.136,25.118 22.136,25.027 C22.133,24.103 22.128,23.178 22.141,22.253 C22.143,22.128 22.205,21.938 22.297,21.890 Z"/>
</svg>