<svg xmlns="http://www.w3.org/2000/svg" xmlns:xlink="http://www.w3.org/1999/xlink" viewBox="0 0 72 66.08"><defs><style>.cls-1{fill:none;}.cls-2{clip-path:url(#clip-path);}.cls-3{fill:#faab3d;}.cls-4{fill:#333c5e;}</style><clipPath id="clip-path" transform="translate(0 0)"><rect class="cls-1" width="72" height="66.08"/></clipPath></defs><g id="Layer_2" data-name="Layer 2"><g id="Layer_1-2" data-name="Layer 1"><g class="cls-2"><path class="cls-3" d="M43.93,0H6.59A6.56,6.56,0,0,0,0,6.56C0,54.4-.24,51.45.72,52.41c14,14,13.09,13.17,13.58,13.41.7.35-1.22.25,29.63.25a6.57,6.57,0,0,0,6.56-6.56V6.56A6.57,6.57,0,0,0,43.93,0M13,58.14l-5-5H13Zm32.83,1.37a1.91,1.91,0,0,1-1.91,1.91H17.65V50.77a2.32,2.32,0,0,0-2.32-2.32H4.68V6.56A1.92,1.92,0,0,1,6.59,4.64H43.93a1.92,1.92,0,0,1,1.91,1.92Z" transform="translate(0 0)"/><path class="cls-4" d="M61.24,6.56v53a6.56,6.56,0,0,1-6.56,6.56,2.32,2.32,0,0,1,0-4.64,1.92,1.92,0,0,0,1.92-1.92V6.56a1.92,1.92,0,0,0-1.92-1.92,2.32,2.32,0,0,1,0-4.64,6.56,6.56,0,0,1,6.56,6.56" transform="translate(0 0)"/><path class="cls-4" d="M72,6.56v53a6.56,6.56,0,0,1-6.56,6.56,2.32,2.32,0,0,1,0-4.64,1.92,1.92,0,0,0,1.92-1.92V6.56a1.92,1.92,0,0,0-1.92-1.92,2.32,2.32,0,0,1,0-4.64A6.56,6.56,0,0,1,72,6.56" transform="translate(0 0)"/></g></g></g></svg>