<svg 
 xmlns="http://www.w3.org/2000/svg"
 xmlns:xlink="http://www.w3.org/1999/xlink"
 width="28px" height="30px">
<path fill-rule="evenodd"  fill="rgb(255, 255, 255)"
 d="M21.645,12.541 C18.249,12.541 15.496,9.788 15.496,6.393 C15.496,2.998 18.249,0.246 21.645,0.246 C25.041,0.246 27.794,2.998 27.794,6.393 C27.794,9.788 25.041,12.541 21.645,12.541 ZM21.645,15.000 C21.650,15.000 21.655,14.999 21.660,14.999 C21.732,17.324 22.766,19.527 24.555,21.025 C25.171,21.543 25.453,22.336 25.289,23.130 C25.076,24.157 24.089,24.836 23.041,24.836 L3.027,24.836 C2.028,24.836 1.076,24.221 0.815,23.258 C0.592,22.431 0.868,21.582 1.492,21.050 C3.362,19.469 4.428,17.172 4.428,14.739 L4.428,11.311 C4.428,6.558 8.283,2.705 13.037,2.705 C13.315,2.705 13.589,2.721 13.859,2.747 C13.337,3.856 13.037,5.089 13.037,6.393 C13.037,11.139 16.899,15.000 21.645,15.000 ZM13.037,29.753 C10.810,29.753 8.947,28.166 8.519,26.065 L17.555,26.065 C17.127,28.166 15.264,29.753 13.037,29.753 Z"/>
</svg>