<svg 
 xmlns="http://www.w3.org/2000/svg"
 xmlns:xlink="http://www.w3.org/1999/xlink"
 width="30px" height="36px">
<path fill-rule="evenodd"  fill="rgb(255, 255, 255)"
 d="M28.295,18.614 C27.400,22.076 26.020,25.181 24.196,27.845 C21.908,31.185 18.913,33.830 15.295,35.707 C15.203,35.754 15.101,35.778 15.000,35.778 C14.899,35.778 14.797,35.754 14.705,35.707 C11.087,33.830 8.092,31.185 5.804,27.845 C3.980,25.181 2.600,22.076 1.705,18.614 C0.184,12.736 0.579,7.924 0.596,7.722 C0.616,7.498 0.752,7.300 0.955,7.201 L14.719,0.504 C14.896,0.418 15.103,0.418 15.281,0.504 L29.045,7.201 C29.248,7.300 29.384,7.498 29.403,7.723 C29.421,7.924 29.816,12.736 28.295,18.614 ZM15.000,8.962 C10.500,8.962 6.840,12.623 6.840,17.122 C6.840,21.621 10.500,25.282 15.000,25.282 C19.499,25.282 23.160,21.621 23.160,17.122 C23.160,12.623 19.499,8.962 15.000,8.962 ZM14.467,20.694 C14.235,20.925 13.926,21.052 13.595,21.052 C13.595,21.052 13.595,21.052 13.595,21.052 C13.264,21.052 12.954,20.925 12.723,20.695 L10.360,18.331 C10.127,18.098 9.998,17.788 9.998,17.458 C9.998,17.129 10.127,16.819 10.360,16.586 C10.593,16.353 10.903,16.225 11.232,16.225 C11.561,16.225 11.870,16.353 12.103,16.585 L13.595,18.077 L17.914,13.757 C18.146,13.526 18.456,13.399 18.786,13.399 C19.113,13.399 19.431,13.529 19.659,13.757 C20.140,14.239 20.140,15.022 19.659,15.502 L14.467,20.694 Z"/>
</svg>