<svg xmlns="http://www.w3.org/2000/svg" xmlns:xlink="http://www.w3.org/1999/xlink" viewBox="0 0 71.26 69.51"><defs><style>.cls-1{fill:none;}.cls-2{clip-path:url(#clip-path);}.cls-3{fill:#333c5e;}.cls-4{fill:#faab3d;}</style><clipPath id="clip-path" transform="translate(0 0)"><rect class="cls-1" width="71.26" height="69.51"/></clipPath></defs><g id="Layer_2" data-name="Layer 2"><g id="Layer_1-2" data-name="Layer 1"><g class="cls-2"><path class="cls-3" d="M70.45,43.77H68V40.52a11.35,11.35,0,0,0-22.7,0v3.25H42.87a.81.81,0,0,0-.81.81V64.86a3.25,3.25,0,0,0,3.25,3.24H68a3.25,3.25,0,0,0,3.25-3.24V44.58a.81.81,0,0,0-.81-.81M59.09,60.71a.81.81,0,0,1-.81.9H55a.81.81,0,0,1-.81-.9l.51-4.6a3.2,3.2,0,0,1-1.32-2.61,3.24,3.24,0,1,1,6.48,0,3.2,3.2,0,0,1-1.32,2.61Zm4.06-16.94h-13V40.52a6.49,6.49,0,0,1,13,0Z" transform="translate(0 0)"/><path class="cls-4" d="M58.33,17.9c0-1.88-.06-3.65-.06-5.37a2.43,2.43,0,0,0-2.44-2.43c-10.4,0-18.33-3-24.93-9.41a2.43,2.43,0,0,0-3.39,0C20.91,7.11,13,10.1,2.58,10.1A2.43,2.43,0,0,0,.15,12.53c0,1.72,0,3.49-.07,5.37-.34,17.47-.8,41.39,28.33,51.48a2.5,2.5,0,0,0,1.59,0,54.27,54.27,0,0,0,8.13-3.56A5.79,5.79,0,0,1,38,64.63V60.26A45.16,45.16,0,0,1,29.2,64.5C4.23,55.42,4.61,35.55,4.94,18c0-1,0-2.07,0-3.08,9.75-.4,17.54-3.36,24.21-9.17,6.68,5.81,14.47,8.77,24.22,9.17,0,1,0,2,0,3.08.05,2.6.1,5.24.07,7.89a14.73,14.73,0,0,1,2.32-.18,14.28,14.28,0,0,1,2.54.22c0-2.77,0-5.46-.07-8" transform="translate(0 0)"/><path class="cls-4" d="M37.58,26.3,25.84,38.05l-5-5a2.43,2.43,0,0,0-3.44,3.44l6.73,6.73a2.44,2.44,0,0,0,3.44,0L41,29.74a2.43,2.43,0,0,0-3.44-3.44" transform="translate(0 0)"/></g></g></g></svg>