<svg xmlns="http://www.w3.org/2000/svg" viewBox="0 0 71.4 58.5"><defs><style>.cls-1{fill:#faab3d;}.cls-2{fill:#333c5e;}</style></defs><g id="Layer_2" data-name="Layer 2"><g id="Capa_1" data-name="Capa 1"><path class="cls-1" d="M59.42,17.64v3.72l-2.34-1.17a3.69,3.69,0,0,0-1.66-.4,3.39,3.39,0,0,0-.64.06V17.64A4.64,4.64,0,0,0,50.14,13H46.61A7,7,0,0,1,40,8.28l-.7-2.06a2.31,2.31,0,0,0-2.2-1.58H22.29a2.33,2.33,0,0,0-2.18,1.54l-.8,2.22A7,7,0,0,1,12.76,13H9.28a4.64,4.64,0,0,0-4.64,4.64V44.33A4.65,4.65,0,0,0,9.28,49H40.94a28.91,28.91,0,0,0,2.53,4l.56.69H9.28A9.3,9.3,0,0,1,0,44.33V17.64A9.29,9.29,0,0,1,9.28,8.36h3.48a2.33,2.33,0,0,0,2.18-1.54l.8-2.22A7,7,0,0,1,22.29,0H37.12a7,7,0,0,1,6.59,4.72l.71,2.06a2.32,2.32,0,0,0,2.19,1.58h3.53A9.29,9.29,0,0,1,59.42,17.64Z"/><path class="cls-1" d="M29.83,15.32a14.51,14.51,0,1,0,8.34,26.37,40.09,40.09,0,0,1-1-5.29,9.87,9.87,0,1,1,2.2-9l4.22-2.11A14.54,14.54,0,0,0,29.83,15.32Z"/><path class="cls-2" d="M46.1,34.23a31.52,31.52,0,0,0,1.2,6.47c1.57,5.19,4.34,8.88,8.23,11,3.9-2.09,6.67-5.78,8.24-11A32.21,32.21,0,0,0,65,34.23l-9.44-4.72Z"/><path class="cls-2" d="M71.38,31a1,1,0,0,0-.58-.88L56,22.69a1,1,0,0,0-.94,0l-14.79,7.4a1,1,0,0,0-.58.88,37.53,37.53,0,0,0,1.49,11.3,27.73,27.73,0,0,0,4.52,9.14,21.44,21.44,0,0,0,9.46,7,1,1,0,0,0,.75,0,21.44,21.44,0,0,0,9.46-7,27.73,27.73,0,0,0,4.52-9.14A37.53,37.53,0,0,0,71.38,31ZM56,53.8a1.12,1.12,0,0,1-.47.11,1,1,0,0,1-.46-.11c-4.69-2.32-8-6.52-9.78-12.49A34.2,34.2,0,0,1,44,33.67a1.05,1.05,0,0,1,.58-1L55.06,27.4a1,1,0,0,1,.94,0l10.54,5.26a1.05,1.05,0,0,1,.58,1,34.2,34.2,0,0,1-1.34,7.64C64,47.28,60.69,51.48,56,53.8Z"/></g></g></svg>