<svg xmlns="http://www.w3.org/2000/svg" viewBox="0 0 252 252"><defs><style>.cls-1,.cls-2{fill:#fff;}.cls-1{opacity:0.1;}</style></defs><g id="Layer_2" data-name="Layer 2"><g id="Layer_1-2" data-name="Layer 1"><circle class="cls-1" cx="126" cy="126" r="126"/><path class="cls-2" d="M188.11,104.33c.06,1.22.08,2.45.08,3.69,0,37.76-28.74,81.3-81.3,81.3a80.88,80.88,0,0,1-43.8-12.84,57.72,57.72,0,0,0,42.31-11.83,28.61,28.61,0,0,1-26.7-19.84,28.76,28.76,0,0,0,12.91-.49,28.6,28.6,0,0,1-22.92-28v-.36a28.48,28.48,0,0,0,12.94,3.58,28.61,28.61,0,0,1-8.84-38.15,81.13,81.13,0,0,0,58.89,29.85,29.06,29.06,0,0,1-.74-6.51,28.59,28.59,0,0,1,49.43-19.55,57.06,57.06,0,0,0,18.15-6.94A28.59,28.59,0,0,1,186,94a56.91,56.91,0,0,0,16.41-4.5A58.17,58.17,0,0,1,188.11,104.33Z"/></g></g></svg>