<svg 
 xmlns="http://www.w3.org/2000/svg"
 xmlns:xlink="http://www.w3.org/1999/xlink"
 width="32px" height="32px">
<path fill-rule="evenodd"  fill="rgb(255, 255, 255)"
 d="M29.407,31.226 C22.310,31.223 15.213,31.223 8.117,31.222 C6.797,31.221 6.336,30.763 6.334,29.452 C6.334,28.794 6.344,28.137 6.330,27.480 C6.324,27.192 6.407,27.065 6.718,27.074 C7.391,27.092 8.065,27.088 8.739,27.075 C9.014,27.070 9.126,27.166 9.111,27.445 C9.096,27.755 9.108,28.066 9.108,28.438 C15.564,28.438 21.950,28.438 28.379,28.438 C28.379,22.035 28.379,15.627 28.379,9.151 C28.044,9.151 27.720,9.143 27.397,9.153 C27.161,9.160 27.029,9.097 27.033,8.825 C27.044,8.119 27.044,7.412 27.033,6.706 C27.029,6.438 27.155,6.373 27.394,6.376 C28.199,6.383 29.004,6.361 29.809,6.384 C30.659,6.409 31.176,6.998 31.178,7.919 C31.182,11.549 31.182,15.179 31.183,18.810 C31.183,22.358 31.181,25.906 31.184,29.454 C31.185,30.758 30.715,31.227 29.407,31.226 ZM24.002,25.715 C16.826,25.715 9.650,25.714 2.473,25.711 C1.329,25.711 0.826,25.204 0.825,24.056 C0.823,20.460 0.825,16.864 0.825,13.268 C0.823,13.268 0.822,13.268 0.820,13.268 C0.820,9.671 0.824,6.075 0.816,2.479 C0.815,1.978 0.874,1.475 1.315,1.212 C1.659,1.008 2.104,0.879 2.505,0.878 C7.399,0.857 12.292,0.866 17.186,0.867 C19.469,0.868 21.751,0.866 24.034,0.868 C25.151,0.870 25.668,1.379 25.668,2.487 C25.672,9.680 25.673,16.872 25.673,24.064 C25.673,25.183 25.132,25.715 24.002,25.715 ZM22.894,4.224 C22.894,4.035 22.878,3.845 22.870,3.659 C16.411,3.659 10.015,3.659 3.601,3.659 C3.601,10.077 3.601,16.460 3.601,22.938 C3.838,22.938 4.031,22.938 4.224,22.938 C10.266,22.938 16.309,22.933 22.352,22.948 C22.781,22.948 22.906,22.842 22.905,22.402 C22.890,16.343 22.895,10.283 22.894,4.224 ZM15.114,14.654 C14.733,14.647 14.601,14.748 14.609,15.147 C14.634,16.362 14.618,17.577 14.618,18.792 C14.618,18.969 14.618,19.147 14.618,19.363 C13.695,19.363 12.818,19.363 11.872,19.363 C11.872,17.824 11.872,16.276 11.872,14.653 C10.247,14.653 8.725,14.653 7.161,14.653 C7.161,13.735 7.161,12.858 7.161,11.918 C8.709,11.918 10.257,11.918 11.850,11.918 C11.850,10.319 11.850,8.783 11.850,7.172 C12.724,7.172 13.554,7.159 14.383,7.191 C14.467,7.195 14.605,7.469 14.608,7.619 C14.628,8.850 14.621,10.082 14.623,11.313 C14.623,11.489 14.623,11.665 14.623,11.891 C16.214,11.891 17.750,11.891 19.322,11.891 C19.322,12.818 19.322,13.696 19.322,14.634 C19.155,14.643 18.981,14.660 18.808,14.660 C17.577,14.663 16.345,14.675 15.114,14.654 Z"/>
</svg>