<svg 
 xmlns="http://www.w3.org/2000/svg"
 xmlns:xlink="http://www.w3.org/1999/xlink"
 width="29px" height="34px">
<path fill-rule="evenodd"  fill="rgb(255, 255, 255)"
 d="M13.763,29.596 L13.763,31.063 C13.763,32.450 12.979,33.071 12.202,33.071 C11.693,33.071 11.186,32.824 10.697,32.334 L5.362,26.997 C4.190,25.824 4.190,23.917 5.362,22.745 L10.697,17.408 C11.186,16.919 11.693,16.671 12.202,16.671 C12.979,16.671 13.763,17.292 13.763,18.678 L13.763,20.294 C14.542,20.434 15.328,20.505 16.111,20.505 C20.334,20.505 24.348,18.465 26.848,15.048 C27.101,14.702 27.555,14.570 27.954,14.728 C28.352,14.886 28.594,15.293 28.542,15.719 C27.610,23.333 21.339,29.148 13.763,29.596 ZM18.302,16.592 C17.814,17.081 17.307,17.329 16.798,17.329 C16.278,17.329 15.820,17.063 15.541,16.601 C15.339,16.265 15.237,15.835 15.237,15.321 L15.237,13.705 C14.458,13.565 13.672,13.495 12.889,13.495 C8.666,13.495 4.652,15.535 2.152,18.952 C1.971,19.200 1.686,19.337 1.392,19.337 C1.276,19.337 1.159,19.316 1.046,19.271 C0.648,19.113 0.406,18.706 0.458,18.281 C1.390,10.667 7.661,4.851 15.237,4.404 L15.237,2.936 C15.237,1.549 16.021,0.928 16.798,0.928 C17.307,0.928 17.814,1.176 18.302,1.665 L23.638,7.003 C24.809,8.175 24.809,10.082 23.638,11.254 L18.302,16.592 Z"/>
</svg>